<svg xmlns="http://www.w3.org/2000/svg" xmlns:xlink="http://www.w3.org/1999/xlink" version="1.1" width="864" height="597"><defs/><g transform="translate(-61.62517109173499,72.375) scale(1.5,1.5)" fill="rgb(0,0,0)" fill-opacity="1" stroke="rgb(0,0,0)" stroke-opacity="1" stroke-linejoin="round" stroke-miterlimit="10"><path fill="none" stroke="rgb(0,0,0)" paint-order="fill stroke markers" d=" M 283.34375 21.045346609644454 L 143.98385156837097 104.64844416352665" stroke-opacity="1" stroke-linejoin="round" stroke-miterlimit="10"/><path fill="rgb(0,0,0)" stroke="none" paint-order="stroke fill markers" d=" M 148.30613533151686 96.98275025685092 L 143.08344739449 105.18860369890277 L 152.7817429103476 104.44324198329315 L 146.81369325771112 102.9507999094874 Z" fill-opacity="1"/><path fill="none" stroke="rgb(0,0,0)" paint-order="fill stroke markers" d=" M 141.20225572893696 173.48395030854726 L 231.56839341269068 244.1132674312724" stroke-opacity="1" stroke-linejoin="round" stroke-miterlimit="10"/><path fill="rgb(0,0,0)" stroke="none" paint-order="stroke fill markers" d=" M 222.8622265653849 242.82965579729856 L 232.39568231530302 244.759868600166 L 228.2197791076461 235.97497631851104 L 228.96834257590928 242.08109232903539 Z" fill-opacity="1"/><path fill="none" stroke="rgb(0,0,0)" paint-order="fill stroke markers" d=" M 367.31282728900476 28.75 L 409.7875691051614 76.97481884029101" stroke-opacity="1" stroke-linejoin="round" stroke-miterlimit="10"/><path fill="rgb(0,0,0)" stroke="none" paint-order="stroke fill markers" d=" M 401.46692582833106 74.10917834299582 L 410.48156812575337 77.7627689398642 L 407.9956552247947 68.35890074380535 L 407.60642932615815 74.4984042416324 Z" fill-opacity="1"/><path fill="none" stroke="rgb(0,0,0)" paint-order="fill stroke markers" d=" M 326.9689417446041 28.75 L 288.0762262207307 243.72664152992039" stroke-opacity="1" stroke-linejoin="round" stroke-miterlimit="10"/><path fill="rgb(0,0,0)" stroke="none" paint-order="stroke fill markers" d=" M 285.15761308611695 235.42443113927985 L 287.8892989051459 244.759868600166 L 293.7186373824374 236.97325746841113 L 288.66371206971155 240.47935645200573 Z" fill-opacity="1"/><path fill="none" stroke="rgb(0,0,0)" paint-order="fill stroke markers" d=" M 331.51449064975 292.7232491728258 L 366.73913720162363 299.6728840071573" stroke-opacity="1" stroke-linejoin="round" stroke-miterlimit="10"/><path fill="rgb(0,0,0)" stroke="none" paint-order="stroke fill markers" d=" M 358.3918150277993 302.4598559349636 L 367.76927936240224 299.87612555946976 L 360.0758164612454 293.9243923170837 L 363.5015475534623 299.0341248427467 Z" fill-opacity="1"/><path fill="none" stroke="rgb(0,0,0)" paint-order="fill stroke markers" d=" M 384.34375 12.53895662836149 L 513.4608609769446 68.24840476808393" stroke-opacity="1" stroke-linejoin="round" stroke-miterlimit="10"/><path fill="rgb(0,0,0)" stroke="none" paint-order="stroke fill markers" d=" M 504.71347415902 69.21184851714217 L 514.4249505106627 68.66437516483724 L 508.1600860178331 61.22367809490601 L 510.4308652995446 66.94106923543066 Z" fill-opacity="1"/><path fill="none" stroke="rgb(0,0,0)" paint-order="fill stroke markers" d=" M 343.89788858531233 28.750000000000057 L 407.9465705419776 270.8244346918793" stroke-opacity="1" stroke-linejoin="round" stroke-miterlimit="10"/><path fill="rgb(0,0,0)" stroke="none" paint-order="stroke fill markers" d=" M 401.78454857655106 264.54156231552145 L 408.21514077708997 271.83950613212954 L 410.19514051005314 262.31626608173354 L 407.10249266019605 267.63421016537853 Z" fill-opacity="1"/><path fill="none" stroke="rgb(0,0,0)" paint-order="fill stroke markers" d=" M 308.3326682363177 28.75 L 254.52842444365876 108.8940441867772" stroke-opacity="1" stroke-linejoin="round" stroke-miterlimit="10"/><path fill="" stroke="" paint-order="stroke fill markers" d=" M 255.18082401977955 100.11797588752853 L 253.94316921024136 109.76581038924067 L 262.404029697334 104.96723353584395 L 256.3677980343991 106.15420755046345 Z" fill-opacity="1"/><g transform="translate(281.2842325316339,69.03996364400447) rotate(-56.124790080843994,0,0)"><rect fill="#ffffff" stroke="none" x="-35" y="-5" width="70" height="10"/><text fill="" stroke="none" font-family="-apple-system, Segoe UI, Roboto, Helvetica, Arial, sans-serif, Apple Color Emoji, Segoe UI Emoji, Segoe UI Symbol" font-size="10px" font-style="normal" font-weight="normal" text-decoration="normal" x="0" y="5" text-anchor="middle" dominant-baseline="text-after-edge">unimplemented</text><g transform="rotate(56.124790080843994,0,0) translate(-281.2842325316339,-69.03996364400447)"><path fill="none" stroke="" paint-order="fill stroke markers" d=" M 438.9222637338422 153.76276893986417 L 423.43540246714963 270.798579957917"/><path fill="" stroke="none" paint-order="stroke fill markers" d=" M 420.1265386904697 262.6440462184948 L 423.29766104331816 271.8395061321296 L 428.75135556251695 263.78533230166994 L 423.86830408490573 267.52709769610595 Z"/><path fill="none" stroke="" paint-order="fill stroke markers" d=" M 539.5226409967356 128.45333179319874 L 444.2551205801248 270.9665853163246"/><path fill="" stroke="none" paint-order="stroke fill markers" d=" M 444.89017961372826 262.18924517116454 L 443.67158887632934 271.83950613212954 L 452.12295208754074 267.0242221454697 L 446.0890773634819 268.2231198952233 Z"/><path fill="#ffffff" stroke="" paint-order="fill stroke markers" d=" M 283.84375 -46.74999999999999 L 283.84375 28.249999999999986 L 383.84375 28.25 L 383.84375 -46.749999999999986 Z"/><text fill="" stroke="none" font-family="-apple-system, Segoe UI, Roboto, Helvetica, Arial, sans-serif, Apple Color Emoji, Segoe UI Emoji, Segoe UI Symbol" font-size="10px" font-style="normal" font-weight="normal" text-decoration="normal" x="333.84375" y="-4.25" text-anchor="middle" dominant-baseline="text-after-edge">whirl</text><path fill="#ffffff" stroke="" paint-order="fill stroke markers" d=" M 42.58344739449001 97.98395030854724 L 42.583447394489994 172.9839503085472 L 142.58344739448998 172.98395030854724 L 142.58344739449 97.98395030854725 Z"/><text fill="" stroke="none" font-family="-apple-system, Segoe UI, Roboto, Helvetica, Arial, sans-serif, Apple Color Emoji, Segoe UI Emoji, Segoe UI Symbol" font-size="10px" font-style="normal" font-weight="normal" text-decoration="normal" x="92.58344739449" y="140.48395030854724" text-anchor="middle" dominant-baseline="text-after-edge">whirl_api</text><path fill="#ffffff" stroke="" paint-order="fill stroke markers" d=" M 231.01449064974997 245.259868600166 L 231.01449064974997 320.259868600166 L 331.01449064975 320.259868600166 L 331.01449064975 245.259868600166 Z"/><text fill="" stroke="none" font-family="-apple-system, Segoe UI, Roboto, Helvetica, Arial, sans-serif, Apple Color Emoji, Segoe UI Emoji, Segoe UI Symbol" font-size="10px" font-style="normal" font-weight="normal" text-decoration="normal" x="281.01449064975" y="287.759868600166" text-anchor="middle" dominant-baseline="text-after-edge">whirl_common</text><path fill="#ffffff" stroke="" paint-order="fill stroke markers" d=" M 368.26927936240224 272.33950613212954 L 368.26927936240224 347.33950613212954 L 468.26927936240224 347.33950613212954 L 468.26927936240224 272.33950613212954 Z"/><text fill="" stroke="none" font-family="-apple-system, Segoe UI, Roboto, Helvetica, Arial, sans-serif, Apple Color Emoji, Segoe UI Emoji, Segoe UI Symbol" font-size="10px" font-style="normal" font-weight="normal" text-decoration="normal" x="418.26927936240224" y="314.83950613212954" text-anchor="middle" dominant-baseline="text-after-edge">whirl_config</text><path fill="#ffffff" stroke="" paint-order="fill stroke markers" d=" M 178.43208744655908 110.26581038924067 L 178.43208744655908 185.26581038924064 L 278.4320874465591 185.26581038924067 L 278.4320874465591 110.26581038924068 Z"/><text fill="" stroke="none" font-family="-apple-system, Segoe UI, Roboto, Helvetica, Arial, sans-serif, Apple Color Emoji, Segoe UI Emoji, Segoe UI Symbol" font-size="10px" font-style="normal" font-weight="normal" text-decoration="normal" x="228.43208744655908" y="152.76581038924067" text-anchor="middle" dominant-baseline="text-after-edge">whirl_db</text><path fill="#ffffff" stroke="" paint-order="fill stroke markers" d=" M 393.9506454147581 78.2627689398642 L 393.9506454147581 153.2627689398642 L 493.9506454147581 153.2627689398642 L 493.9506454147581 78.26276893986422 Z"/><text fill="" stroke="none" font-family="-apple-system, Segoe UI, Roboto, Helvetica, Arial, sans-serif, Apple Color Emoji, Segoe UI Emoji, Segoe UI Symbol" font-size="10px" font-style="normal" font-weight="normal" text-decoration="normal" x="443.9506454147581" y="120.7627689398642" text-anchor="middle" dominant-baseline="text-after-edge">whirl_prompt</text><path fill="#ffffff" stroke="" paint-order="fill stroke markers" d=" M 514.9249505106627 52.95333179319875 L 514.9249505106627 127.95333179319873 L 614.9249505106627 127.95333179319874 L 614.9249505106627 52.95333179319876 Z"/><text fill="" stroke="none" font-family="-apple-system, Segoe UI, Roboto, Helvetica, Arial, sans-serif, Apple Color Emoji, Segoe UI Emoji, Segoe UI Symbol" font-size="10px" font-style="normal" font-weight="normal" text-decoration="normal" x="564.9249505106627" y="95.45333179319874" text-anchor="middle" dominant-baseline="text-after-edge">whirl_server</text><g transform="scale(0.6666666666666666,0.6666666666666666) translate(61.62517109173499,-72.375)"/></g></g></g><!--Original Flowchart Text (flowchart.fun):

~~~
layout:
  name: dagre
  rankDir: TB
~~~
whirl
  whirl_api
    (whirl_common)
  whirl_common
    (whirl_config)
  whirl_config
  unimplemented: whirl_db
  whirl_prompt
    (whirl_config)
  whirl_server
    (whirl_config)


--></svg>